<svg width="146" height="58" viewBox="0 0 146 58" fill="none" xmlns="http://www.w3.org/2000/svg">
<path d="M27.408 17.984C27.408 17.056 27.312 16.352 27.12 15.872C26.928 15.392 26.528 15.056 25.92 14.864C25.344 14.672 24.432 14.576 23.184 14.576C23.088 14.576 23.04 14.48 23.04 14.288C23.04 14.096 23.088 14 23.184 14C23.952 14 24.816 14.032 25.776 14.096C26.736 14.128 27.808 14.144 28.992 14.144C30.048 14.144 31.072 14.128 32.064 14.096C33.056 14.032 33.92 14 34.656 14C34.752 14 34.8 14.096 34.8 14.288C34.8 14.48 34.752 14.576 34.656 14.576C33.472 14.576 32.576 14.672 31.968 14.864C31.36 15.024 30.96 15.344 30.768 15.824C30.576 16.272 30.48 16.96 30.48 17.888V40.112C30.48 41.04 30.576 41.744 30.768 42.224C30.96 42.704 31.36 43.024 31.968 43.184C32.576 43.344 33.472 43.424 34.656 43.424C34.752 43.424 34.8 43.52 34.8 43.712C34.8 43.904 34.752 44 34.656 44C33.92 44 33.056 43.984 32.064 43.952C31.072 43.92 30.048 43.904 28.992 43.904C27.808 43.904 26.736 43.92 25.776 43.952C24.816 43.984 23.952 44 23.184 44C23.088 44 23.04 43.904 23.04 43.712C23.04 43.52 23.088 43.424 23.184 43.424C24.432 43.424 25.344 43.344 25.92 43.184C26.528 43.024 26.928 42.704 27.12 42.224C27.312 41.744 27.408 41.04 27.408 40.112V17.984ZM7.296 28.88V27.872H28.752V28.88H7.296ZM5.904 40.112V17.888C5.904 16.96 5.792 16.272 5.568 15.824C5.376 15.344 4.976 15.024 4.368 14.864C3.792 14.672 2.912 14.576 1.728 14.576C1.664 14.576 1.632 14.48 1.632 14.288C1.632 14.096 1.664 14 1.728 14C2.496 14 3.36 14.032 4.32 14.096C5.312 14.128 6.336 14.144 7.392 14.144C8.576 14.144 9.648 14.128 10.608 14.096C11.568 14.032 12.432 14 13.2 14C13.264 14 13.296 14.096 13.296 14.288C13.296 14.48 13.264 14.576 13.2 14.576C12.016 14.576 11.12 14.672 10.512 14.864C9.904 15.056 9.488 15.392 9.264 15.872C9.072 16.352 8.976 17.056 8.976 17.984V40.112C8.976 41.04 9.072 41.744 9.264 42.224C9.456 42.704 9.856 43.024 10.464 43.184C11.104 43.344 12.016 43.424 13.2 43.424C13.264 43.424 13.296 43.52 13.296 43.712C13.296 43.904 13.264 44 13.2 44C12.4 44 11.52 43.984 10.56 43.952C9.632 43.92 8.576 43.904 7.392 43.904C6.336 43.904 5.312 43.92 4.32 43.952C3.328 43.984 2.448 44 1.68 44C1.616 44 1.584 43.904 1.584 43.712C1.584 43.52 1.616 43.424 1.68 43.424C2.864 43.424 3.76 43.344 4.368 43.184C4.976 43.024 5.376 42.704 5.568 42.224C5.792 41.744 5.904 41.04 5.904 40.112Z" fill="white"/>
<path d="M82.88 17.936V39.92C82.88 40.784 82.976 41.44 83.168 41.888C83.36 42.336 83.728 42.64 84.272 42.8C84.848 42.928 85.664 42.992 86.72 42.992H91.952C93.808 42.992 95.28 42.416 96.368 41.264C97.456 40.08 98.16 38.544 98.48 36.656C98.48 36.56 98.56 36.528 98.72 36.56C98.912 36.56 99.008 36.608 99.008 36.704C98.912 37.568 98.816 38.624 98.72 39.872C98.624 41.088 98.576 42.224 98.576 43.28C98.576 43.76 98.336 44 97.856 44H75.68C75.616 44 75.584 43.904 75.584 43.712C75.584 43.52 75.616 43.424 75.68 43.424C76.832 43.424 77.696 43.344 78.272 43.184C78.88 43.024 79.28 42.704 79.472 42.224C79.664 41.744 79.76 41.04 79.76 40.112V17.888C79.76 16.96 79.664 16.272 79.472 15.824C79.28 15.344 78.88 15.024 78.272 14.864C77.696 14.672 76.832 14.576 75.68 14.576C75.616 14.576 75.584 14.48 75.584 14.288C75.584 14.096 75.616 14 75.68 14C76.448 14 77.312 14.032 78.272 14.096C79.232 14.128 80.24 14.144 81.296 14.144C82.416 14.144 83.456 14.128 84.416 14.096C85.376 14.032 86.224 14 86.96 14C87.056 14 87.104 14.096 87.104 14.288C87.104 14.48 87.056 14.576 86.96 14.576C85.808 14.576 84.928 14.672 84.32 14.864C83.744 15.024 83.36 15.344 83.168 15.824C82.976 16.304 82.88 17.008 82.88 17.936Z" fill="white"/>
<path d="M110.712 38.768L111.192 15.104L112.344 15.2L111.864 38.768C111.832 40.432 112.104 41.632 112.68 42.368C113.288 43.072 114.376 43.424 115.944 43.424C116.008 43.424 116.04 43.52 116.04 43.712C116.04 43.904 116.008 44 115.944 44C115.24 44 114.504 43.984 113.736 43.952C113 43.92 112.184 43.904 111.288 43.904C110.456 43.904 109.672 43.92 108.936 43.952C108.2 43.984 107.512 44 106.872 44C106.808 44 106.776 43.904 106.776 43.712C106.776 43.52 106.808 43.424 106.872 43.424C108.216 43.424 109.176 43.072 109.752 42.368C110.36 41.632 110.68 40.432 110.712 38.768ZM143.976 43.424C144.072 43.424 144.12 43.52 144.12 43.712C144.12 43.904 144.072 44 143.976 44C143.208 44 142.328 43.984 141.336 43.952C140.376 43.92 139.368 43.904 138.312 43.904C137.288 43.904 136.328 43.92 135.432 43.952C134.568 43.984 133.784 44 133.08 44C133.016 44 132.984 43.904 132.984 43.712C132.984 43.52 133.016 43.424 133.08 43.424C134.68 43.424 135.704 43.216 136.152 42.8C136.6 42.384 136.792 41.488 136.728 40.112L135.816 16.928L137.4 14.72L124.92 43.664C124.888 43.792 124.76 43.856 124.536 43.856C124.312 43.856 124.168 43.792 124.104 43.664L112.056 17.984C110.968 15.712 109.352 14.576 107.208 14.576C107.144 14.576 107.112 14.48 107.112 14.288C107.112 14.096 107.144 14 107.208 14C107.72 14 108.264 14.016 108.84 14.048C109.448 14.08 109.944 14.096 110.328 14.096C110.84 14.096 111.304 14.08 111.72 14.048C112.168 14.016 112.504 14 112.728 14C113.176 14 113.528 14.144 113.784 14.432C114.04 14.72 114.424 15.408 114.936 16.496L125.88 39.536L124.392 42.032L136.104 15.2C136.264 14.816 136.472 14.528 136.728 14.336C136.984 14.112 137.256 14 137.544 14C137.736 14 137.992 14.016 138.312 14.048C138.632 14.08 139.016 14.096 139.464 14.096C140.328 14.096 141.032 14.08 141.576 14.048C142.12 14.016 142.696 14 143.304 14C143.368 14 143.4 14.096 143.4 14.288C143.4 14.48 143.368 14.576 143.304 14.576C141.768 14.576 140.632 14.8 139.896 15.248C139.16 15.696 138.824 16.576 138.888 17.888L139.848 40.112C139.88 41.04 139.992 41.744 140.184 42.224C140.376 42.704 140.76 43.024 141.336 43.184C141.944 43.344 142.824 43.424 143.976 43.424Z" fill="white"/>
<rect x="37.7071" y="30" width="25.8701" height="25.8701" transform="rotate(-45 37.7071 30)" stroke="white"/>
<line x1="38" y1="29.5" x2="74" y2="29.5" stroke="white"/>
<line x1="56" y1="12" x2="56" y2="48" stroke="white" stroke-width="2"/>
</svg>
