<svg xmlns="http://www.w3.org/2000/svg" viewBox="0 0 441 180" fill="none" role="img" aria-label="HOLM">
 <defs><filter id="sk" x="-8%" y="-8%" width="116%" height="116%"><feTurbulence type="fractalNoise" baseFrequency="0.018 0.022" numOctaves="2" seed="7" result="n"/><feDisplacementMap in="SourceGraphic" in2="n" scale="3.2" xChannelSelector="R" yChannelSelector="G"/></filter></defs>
 <g fill="currentColor">
  <path transform="translate(26.00,140.00) scale(0.12000,-0.12000)" d="M483 613Q480 613 480.0 619.0Q480 625 483 625L531 624Q575 622 604 622Q631 622 673 624L722 625Q725 625 725.0 619.0Q725 613 722 613Q684 613 666.0 607.5Q648 602 641.5 588.0Q635 574 635 544V81Q635 51 641.5 36.5Q648 22 666.0 17.0Q684 12 722 12Q725 12 725.0 6.0Q725 0 722 0L604 2L531 1Q513 0 483 0Q480 0 480.0 6.0Q480 12 483 12Q522 12 540.0 17.0Q558 22 564.5 36.5Q571 51 571 81V315H187V81Q187 51 193.5 36.5Q200 22 218.0 17.0Q236 12 275 12Q277 12 277.0 6.0Q277 0 275 0Q244 0 226 1L154 2L35 0Q33 0 33.0 6.0Q33 12 35 12Q73 12 91.5 17.0Q110 22 116.5 36.5Q123 51 123 81V544Q123 574 116.5 588.0Q110 602 92.0 607.5Q74 613 36 613Q34 613 34.0 619.0Q34 625 36 625L87 624Q129 622 154 622Q183 622 227 624L275 625Q277 625 277.0 619.0Q277 613 275 613Q237 613 218.5 607.0Q200 601 193.5 586.5Q187 572 187 542V336H571V542Q571 572 564.5 586.5Q558 601 540.0 607.0Q522 613 483 613Z"/>
  <path transform="translate(237.00,140.00) scale(0.12000,-0.12000)" d="M265 21H374Q431 21 465.0 56.0Q499 91 510 153Q510 155 515.5 155.0Q521 155 521 152Q512 69 512 15Q512 7 509.0 3.5Q506 0 497 0H35Q33 0 33.0 6.0Q33 12 35 12Q73 12 90.5 17.0Q108 22 114.0 36.5Q120 51 120 81V544Q120 574 114.0 588.0Q108 602 90.5 607.5Q73 613 35 613Q33 613 33.0 619.0Q33 625 35 625L84 624Q126 622 152 622Q180 622 222 624L270 625Q273 625 273.0 619.0Q273 613 270 613Q233 613 215.0 607.5Q197 602 191.0 587.5Q185 573 185 543V85Q185 56 191.0 43.0Q197 30 213.0 25.5Q229 21 265 21Z"/>
  <path transform="translate(314.96,140.00) scale(0.12000,-0.12000)" d="M128 573Q97 613 46 613Q44 613 44.0 619.0Q44 625 46 625L111 623L161 625Q174 625 182.5 615.5Q191 606 207 573L431 102L648 600Q660 625 678 625L718 623L765 624Q776 625 798 625Q800 625 800.0 619.0Q800 613 798 613Q747 613 725.5 598.5Q704 584 706 544L726 81Q727 50 733.5 36.0Q740 22 757.0 17.0Q774 12 812 12Q815 12 815.0 6.0Q815 0 812 0Q781 0 763 1L694 2L630 1Q614 0 585 0Q583 0 583.0 6.0Q583 12 585 12Q619 12 635.5 17.5Q652 23 657.5 37.0Q663 51 661 81L643 536L415 7Q413 3 407 3Q402 3 398 7L152 532L143 109Q142 56 161.0 34.0Q180 12 228 12Q230 12 230.0 6.0Q230 0 228 0Q200 0 185 1L131 2L79 1Q65 0 39 0Q37 0 37.0 6.0Q37 12 39 12Q81 12 99.5 34.5Q118 57 119 109Z"/>
 </g>
 <g filter="url(#sk)" stroke="currentColor" fill="none" stroke-linecap="round" stroke-linejoin="round">
  <path d="M177.0,67.5 L177.0,146.0 M132.8,103.2 L222.3,103.2" stroke-width="1" opacity="0.22"/>
  <path d="M175.0,67.5 L222.3,100.2 L178.0,146.0 L132.8,105.2 L176.0,61.5 L181.0,69.5" stroke-width="2.6"/>
  <path d="M178.0,70.5 L218.3,103.2 L176.0,142.0 L136.8,102.2 L177.0,66.5" stroke-width="1.4" opacity="0.4"/>
 </g>
</svg>